# xmcd CD database file
#
# Track frame offsets:
#	150
#	8982
#	19460
#	33535
#	57405
#	68330
#	88420
#	97815
#	107467
#	116627
#	129362
#	146257
#	164440
#	177707
#	193835
#	205390
#
# Disc length: 2921 seconds
#
# Revision: 1
# Processed by: cddbd v1.5.2PL0 Copyright (c) Steve Scherf et al.
# Submitted via: CDex 1.70beta2
#
DISCID=e20b6710
DTITLE=Fats Domino - Best Of CD2
DYEAR=2000
DGENRE=Oldies
TTITLE0=Be My Guest
TTITLE1=The Fat Man
TTITLE2=Walking To New Orleans
TTITLE3=If Your Left Eye Jumps
TTITLE4=I'm Gonna Be A Wheel Someday
TTITLE5=Jambalaya
TTITLE6=Margie
TTITLE7=What's The Reason
TTITLE8=I'm Ready
TTITLE9=When My Dreamboat Comes Home
TTITLE10=Please Don't Leave Me
TTITLE11=Shake, Rattle And Roll
TTITLE12=You Know I Love You
TTITLE13=Whiskey Heaven
TTITLE14=Goin' To The River
TTITLE15=Red Sails In The Sunset
EXTD=YEAR: 2000
EXTT0=
EXTT1=
EXTT2=
EXTT3=
EXTT4=
EXTT5=
EXTT6=
EXTT7=
EXTT8=
EXTT9=
EXTT10=
EXTT11=
EXTT12=
EXTT13=
EXTT14=
EXTT15=
PLAYORDER=
